<svg xmlns="http://www.w3.org/2000/svg" viewBox="0 0 32 32" width="32" height="32">
  <!-- Sun -->
  <circle cx="26" cy="6" r="4" fill="#F59E0B"/>
  <g stroke="#F59E0B" stroke-width="1.2" stroke-linecap="round">
    <line x1="26" y1="0" x2="26" y2="1"/>
    <line x1="26" y1="11" x2="26" y2="12"/>
    <line x1="20" y1="6" x2="21" y2="6"/>
    <line x1="31" y1="6" x2="32" y2="6"/>
    <line x1="21.8" y1="1.8" x2="22.5" y2="2.5"/>
    <line x1="29.5" y1="9.5" x2="30.2" y2="10.2"/>
    <line x1="30.2" y1="1.8" x2="29.5" y2="2.5"/>
    <line x1="22.5" y1="9.5" x2="21.8" y2="10.2"/>
  </g>
  <!-- Soil -->
  <rect x="0" y="27" width="32" height="5" rx="1" fill="#92400E"/>
  <!-- Plant stem -->
  <line x1="12" y1="27" x2="12" y2="14" stroke="#16A34A" stroke-width="2" stroke-linecap="round"/>
  <!-- Leaves -->
  <ellipse cx="16" cy="16" rx="5" ry="2.5" fill="#22C55E" transform="rotate(-30 16 16)"/>
  <ellipse cx="8" cy="19" rx="5" ry="2.5" fill="#22C55E" transform="rotate(30 8 19)"/>
  <ellipse cx="15" cy="12" rx="4" ry="2" fill="#16A34A" transform="rotate(-40 15 12)"/>
  <!-- Evaporation wavy arrows -->
  <path d="M6 11 Q7 9 6 7 Q5 5 6 3" fill="none" stroke="#3B82F6" stroke-width="1.2" stroke-linecap="round"/>
  <path d="M6 3 L5 5 M6 3 L7.5 4.5" fill="none" stroke="#3B82F6" stroke-width="1.2" stroke-linecap="round"/>
  <path d="M18 8 Q19 6 18 4 Q17 2 18 0" fill="none" stroke="#3B82F6" stroke-width="1.2" stroke-linecap="round"/>
  <path d="M18 0 L17 2 M18 0 L19.5 1.5" fill="none" stroke="#3B82F6" stroke-width="1.2" stroke-linecap="round"/>
</svg>
